<svg width="11" height="19" viewBox="0 0 11 19" fill="none" xmlns="http://www.w3.org/2000/svg">
<path d="M8.78234 18.9999C8.58104 19.0006 8.38214 18.9559 8.20026 18.869C8.01838 18.7821 7.85815 18.6553 7.73133 18.4978L1.22315 10.3557C1.02497 10.1129 0.916626 9.80834 0.916626 9.49402C0.916626 9.1797 1.02497 8.87513 1.22315 8.63231L7.9604 0.490225C8.18911 0.2131 8.51777 0.0388259 8.87407 0.00574221C9.23037 -0.0273414 9.58513 0.083475 9.8603 0.313813C10.1355 0.54415 10.3085 0.875142 10.3414 1.23397C10.3742 1.5928 10.2642 1.95008 10.0355 2.2272L4.01237 9.5008L9.83335 16.7744C9.99812 16.9736 10.1028 17.2161 10.135 17.4734C10.1671 17.7306 10.1255 17.9917 10.0149 18.2258C9.90435 18.46 9.7295 18.6573 9.51106 18.7945C9.29263 18.9316 9.03975 19.0029 8.78234 18.9999Z" fill="#3B65D0"/>
</svg>
