<svg width="20" height="20" viewBox="0 0 20 20" fill="none" xmlns="http://www.w3.org/2000/svg">
<path d="M4 20H17C17.5304 20 18.0391 19.7893 18.4142 19.4142C18.7893 19.0391 19 18.5304 19 18V2C19 1.46957 18.7893 0.960859 18.4142 0.585786C18.0391 0.210714 17.5304 0 17 0H3C2.46957 0 1.96086 0.210714 1.58579 0.585786C1.21071 0.960859 1 1.46957 1 2V18C1 18.5304 1.21071 19.0391 1.58579 19.4142C1.96086 19.7893 2.46957 20 3 20H4ZM10 2.999C11.647 2.999 13 4.35 13 5.999C13 7.647 11.647 9 10 9C8.353 9 7 7.647 7 5.999C7 4.35 8.353 2.999 10 2.999ZM4 15.25C4 13.031 6.705 10.75 10 10.75C13.295 10.75 16 13.031 16 15.25V16H4V15.25Z" fill="#3B65D0"/>
</svg>
